<?xml version="1.0" standalone="no"?>
<!DOCTYPE svg PUBLIC "-//W3C//DTD SVG 20010904//EN"
 "http://www.w3.org/TR/2001/REC-SVG-20010904/DTD/svg10.dtd">
<svg version="1.0" xmlns="http://www.w3.org/2000/svg"
 width="2000.000000pt" height="1500.000000pt" viewBox="0 0 2000.000000 1500.000000"
 preserveAspectRatio="xMidYMid meet">

<g transform="translate(0.000000,1500.000000) scale(0.100000,-0.100000)"
fill="#000000" stroke="none">
<path d="M3840 10695 c-85 -18 -181 -38 -212 -45 l-58 -11 0 -45 0 -44 53 -1
c81 0 119 -17 142 -64 19 -39 20 -63 23 -840 3 -868 4 -858 -51 -899 -15 -11
-58 -25 -95 -31 l-67 -11 -3 -42 -3 -42 340 0 341 0 0 44 0 43 -56 7 c-74 9
-108 27 -130 73 -16 34 -19 73 -22 338 -5 332 3 416 44 497 98 193 341 289
506 200 129 -68 163 -229 156 -719 -3 -244 -6 -283 -22 -316 -22 -46 -58 -65
-134 -75 l-57 -7 -3 -42 -3 -43 340 0 341 0 0 43 0 43 -70 11 c-137 21 -133 7
-141 513 -5 344 -9 425 -23 474 -40 143 -108 214 -249 261 -212 70 -487 -1
-647 -168 l-40 -41 0 487 0 487 -22 -1 c-13 0 -93 -16 -178 -34z"/>
<path d="M6943 10683 l-223 -46 0 -43 0 -44 70 0 c93 0 136 -18 158 -67 16
-35 17 -104 17 -833 l0 -795 -25 -50 c-30 -61 -67 -83 -148 -91 l-62 -7 0 -43
0 -44 360 0 360 0 0 45 c0 45 0 45 -36 45 -95 0 -158 38 -184 110 -7 19 -15
106 -17 193 -6 156 -5 158 18 183 13 14 36 35 51 45 l27 20 148 -178 c168
-202 241 -298 253 -327 12 -31 -15 -46 -82 -46 l-58 0 0 -45 0 -45 335 0 335
0 0 45 0 45 -36 0 c-57 0 -110 20 -155 58 -55 47 -580 643 -577 654 7 20 445
399 490 423 31 17 72 29 109 32 l59 6 0 43 0 44 -330 0 -330 0 0 -45 0 -45 46
0 c62 0 129 -18 149 -41 16 -17 16 -20 -5 -53 -12 -20 -117 -128 -233 -241
l-212 -205 -3 695 -2 695 -23 -1 c-12 -1 -122 -21 -244 -46z"/>
<path d="M8580 10695 c-85 -18 -181 -38 -212 -45 l-58 -11 0 -43 0 -43 70 -5
c39 -3 80 -12 94 -22 51 -33 51 -40 51 -906 0 -750 -1 -807 -18 -837 -22 -41
-47 -55 -127 -68 l-65 -11 -3 -42 -3 -42 340 0 341 0 0 44 0 43 -56 7 c-74 9
-108 27 -130 73 -16 34 -19 71 -22 339 -4 331 3 415 44 496 101 200 361 295
521 192 111 -73 143 -218 143 -653 0 -249 -10 -356 -35 -395 -20 -30 -58 -46
-127 -55 l-53 -6 -3 -42 -3 -43 340 0 341 0 0 43 0 43 -70 11 c-137 21 -133 8
-141 508 -4 233 -12 432 -18 460 -19 87 -70 176 -125 217 -114 85 -307 114
-469 69 -126 -34 -253 -108 -319 -185 l-27 -31 -1 488 0 487 -22 -1 c-13 0
-93 -16 -178 -34z"/>
<path d="M11305 10711 c-49 -10 -156 -31 -237 -46 l-148 -27 0 -39 0 -39 63 0
c78 -1 154 -27 180 -62 25 -33 39 -232 35 -495 l-3 -177 -35 31 c-110 96 -216
135 -370 134 -160 0 -281 -40 -405 -134 -103 -77 -192 -220 -232 -367 -27
-100 -24 -301 5 -403 58 -205 178 -351 355 -432 95 -43 171 -59 287 -58 164 2
270 50 380 172 l60 66 0 -116 c0 -64 2 -118 4 -120 6 -5 395 19 414 26 9 3 12
18 10 42 l-3 38 -66 7 c-37 3 -76 11 -88 17 -31 17 -50 63 -61 144 -5 40 -10
467 -10 965 l0 892 -22 -1 c-13 0 -63 -9 -113 -18z m-322 -884 c91 -45 157
-113 184 -190 16 -45 18 -87 18 -332 0 -312 -7 -357 -70 -439 -97 -129 -311
-186 -453 -121 -157 72 -242 269 -242 559 0 299 89 490 257 552 26 10 69 13
134 11 88 -2 103 -6 172 -40z"/>
<path d="M2842 9990 c-117 -17 -222 -97 -275 -210 -40 -84 -49 -208 -22 -291
29 -86 132 -181 348 -318 253 -161 290 -203 271 -308 -19 -108 -94 -163 -219
-163 -155 0 -266 91 -336 275 -30 79 -34 85 -61 85 l-28 0 0 -220 0 -220 28 0
c22 0 32 8 51 44 l24 44 46 -29 c189 -120 460 -110 606 22 77 71 107 138 113
254 9 184 -44 253 -347 452 -211 139 -263 180 -285 223 -38 75 -24 161 35 214
43 39 85 50 165 44 96 -8 177 -87 234 -229 22 -57 25 -60 54 -57 l31 3 3 183
2 182 -22 0 c-12 0 -34 -12 -49 -26 l-27 -26 -54 25 c-88 41 -199 59 -286 47z"/>
<path d="M5830 9990 c-203 -16 -326 -74 -371 -175 -53 -117 17 -223 133 -201
48 9 73 39 113 136 19 46 44 94 56 106 32 34 82 47 158 42 167 -12 241 -116
241 -337 l0 -78 -235 -103 c-257 -112 -370 -176 -444 -250 -75 -75 -96 -127
-96 -235 0 -81 3 -95 30 -144 56 -101 159 -151 311 -151 167 0 304 71 403 210
l46 65 7 -60 c17 -133 70 -198 177 -219 86 -16 257 43 304 106 18 24 18 27 1
59 -9 19 -19 28 -22 21 -11 -35 -118 -55 -164 -31 -11 6 -30 32 -41 57 -21 45
-22 65 -28 477 -6 442 -8 465 -50 546 -62 122 -259 181 -529 159z m330 -742
c0 -196 -34 -309 -121 -403 -120 -130 -316 -125 -386 9 -19 36 -18 134 1 180
22 53 110 141 190 191 85 52 274 141 309 144 4 1 7 -54 7 -121z"/>
<path d="M12460 9989 c-155 -16 -329 -104 -430 -217 -62 -69 -132 -210 -154
-309 -23 -104 -21 -280 4 -379 61 -242 232 -414 465 -470 81 -19 256 -22 327
-5 127 30 229 88 329 186 l59 59 -32 33 c-17 18 -36 33 -41 33 -5 0 -39 -27
-75 -60 -36 -34 -95 -75 -131 -92 -57 -28 -80 -33 -163 -36 -73 -3 -109 0
-150 13 -110 36 -199 117 -257 233 -48 94 -80 288 -66 397 l6 55 448 0 c334 0
450 3 459 12 28 28 3 204 -42 304 -82 178 -292 270 -556 243z m171 -134 c99
-35 159 -121 159 -227 0 -49 -3 -59 -22 -70 -28 -16 -598 -26 -598 -11 0 6 9
38 21 73 40 124 108 201 206 236 52 18 180 18 234 -1z"/>
<path d="M14185 9990 c-151 -18 -264 -75 -389 -194 -32 -31 -61 -55 -63 -52
-3 3 -12 59 -21 125 -10 79 -20 121 -28 121 -6 0 -98 -20 -204 -45 -106 -25
-194 -45 -196 -45 -2 0 -4 -20 -4 -45 l0 -45 53 -1 c81 0 119 -18 141 -63 16
-32 21 -76 28 -245 11 -231 4 -637 -12 -692 -16 -56 -49 -80 -129 -92 l-71
-11 0 -43 0 -43 335 0 335 0 0 44 0 43 -56 7 c-137 16 -145 35 -151 386 -8
434 11 524 132 639 147 139 377 158 481 39 76 -86 97 -241 92 -659 -3 -247 -6
-300 -20 -331 -20 -44 -57 -65 -132 -74 l-56 -7 0 -43 0 -44 335 0 335 0 0 43
0 43 -70 11 c-76 12 -93 21 -118 67 -15 27 -17 73 -17 396 l0 365 32 68 c91
192 315 291 496 220 56 -23 113 -94 137 -170 29 -95 43 -312 38 -589 -4 -211
-7 -246 -24 -279 -27 -54 -59 -74 -131 -81 l-63 -7 0 -43 0 -44 340 0 340 0 0
44 0 43 -62 7 c-69 7 -105 27 -127 72 -20 39 -30 227 -31 549 0 149 -5 299
-10 335 -34 213 -187 324 -444 322 -170 -2 -325 -65 -445 -181 l-71 -68 -29
51 c-85 149 -261 221 -476 196z"/>
<path d="M15890 9927 l0 -43 59 -12 c71 -15 112 -54 165 -161 57 -111 516
-1112 516 -1123 0 -24 -126 -251 -157 -283 -47 -49 -78 -62 -203 -90 -128 -28
-164 -45 -185 -85 -19 -36 -19 -61 0 -106 21 -50 67 -67 169 -62 144 6 245 74
318 215 20 37 167 361 328 718 340 759 379 843 425 906 37 49 85 79 129 79 24
0 26 3 26 45 l0 45 -280 0 -280 0 0 -44 0 -43 60 -6 c34 -3 72 -12 85 -21 28
-19 40 -67 31 -129 -8 -50 -327 -849 -341 -854 -11 -3 -293 674 -332 795 -48
151 -29 196 91 211 l51 6 3 43 3 42 -340 0 -341 0 0 -43z"/>
<path d="M2522 6628 c3 -7 92 -274 198 -593 l193 -580 -193 -580 c-106 -319
-195 -586 -198 -592 -3 -10 1497 -13 7478 -13 5981 0 7481 3 7478 13 -3 6 -92
273 -198 592 l-193 580 193 580 c106 319 195 586 198 593 3 9 -1496 12 -7478
12 -5982 0 -7481 -3 -7478 -12z m6904 -669 c65 -20 164 -80 203 -122 l24 -26
-31 -38 c-16 -21 -41 -48 -55 -61 l-24 -23 -44 37 c-78 66 -119 79 -244 79
-104 0 -114 -2 -177 -33 -126 -62 -191 -169 -191 -317 0 -104 27 -176 94 -250
66 -72 138 -107 233 -113 109 -7 173 16 294 104 23 17 24 16 80 -39 l56 -56
-23 -25 c-13 -14 -39 -36 -57 -48 -19 -13 -34 -26 -34 -30 0 -14 197 -9 207 5
6 6 98 212 206 457 107 245 201 458 208 473 l13 28 94 -3 95 -3 211 -480 212
-480 192 -3 192 -2 0 405 0 405 -155 0 -155 0 0 80 0 80 400 0 400 0 0 -80 0
-80 -155 0 -155 0 0 -405 0 -405 248 2 247 3 3 483 2 482 85 0 85 0 2 -482 3
-483 235 -2 235 -2 -35 26 c-154 118 -231 287 -217 476 13 179 106 332 257
420 210 122 497 87 669 -81 108 -107 153 -220 153 -381 0 -116 -24 -200 -80
-287 -36 -56 -134 -154 -153 -154 -5 0 -9 -4 -9 -10 0 -6 83 -10 230 -10 l230
0 0 485 0 485 90 0 89 0 298 -382 298 -383 3 383 2 382 85 0 85 0 2 -482 3
-483 68 -3 c67 -3 67 -3 67 -32 l0 -30 -164 0 -165 0 -288 372 -288 371 -3
-371 -2 -372 -1548 0 -1547 0 -49 115 -49 115 -261 -2 -260 -3 -50 -112 -50
-113 -2258 0 -2258 0 0 30 c0 29 0 29 68 32 l67 3 3 483 2 482 360 0 360 0 0
-80 0 -80 -272 -2 -273 -3 -3 -132 -3 -133 248 -2 248 -3 3 -77 3 -78 -251 0
-251 0 3 -137 3 -138 282 -3 282 -2 3 -48 3 -47 108 -3 107 -3 0 486 0 485
224 0 c333 0 443 -28 566 -146 96 -91 140 -207 140 -366 0 -201 -58 -319 -215
-435 l-30 -22 314 0 314 -1 -52 55 c-107 113 -121 180 -121 598 l0 317 90 0
90 0 0 -324 c0 -363 4 -392 68 -466 49 -58 103 -83 182 -84 36 0 82 6 104 13
55 19 110 72 137 134 23 51 24 59 27 390 l3 337 91 0 90 0 -5 -342 c-5 -370
-8 -398 -63 -498 -15 -28 -45 -67 -66 -86 -21 -18 -38 -36 -38 -39 0 -3 137
-5 305 -5 l305 0 -75 73 c-130 129 -184 288 -157 469 48 330 384 530 718 427z"/>
<path d="M12707 5820 c-109 -19 -209 -97 -263 -205 -26 -54 -29 -70 -29 -160
0 -93 2 -105 32 -166 143 -290 550 -271 664 31 29 76 29 194 -1 272 -26 70
-99 154 -167 190 -39 21 -159 52 -183 47 -3 -1 -26 -5 -53 -9z"/>
<path d="M6660 5446 l0 -356 83 0 c195 0 318 30 394 94 71 60 108 194 92 328
-16 129 -85 217 -203 258 -48 17 -93 23 -213 27 l-153 6 0 -357z"/>
<path d="M10164 5538 l-90 -203 94 -3 c51 -1 133 -1 182 0 l89 3 -86 195 c-47
107 -89 199 -93 203 -4 4 -47 -84 -96 -195z"/>
</g>
</svg>
